<?xml version="1.0" encoding="UTF-8"?>
<svg xmlns="http://www.w3.org/2000/svg" xmlns:xlink="http://www.w3.org/1999/xlink" viewBox="0 0 64 64" width="64px" height="64px">
<g id="surface274631429">
<path style=" stroke:none;fill-rule:nonzero;fill:rgb(99.607843%,81.176472%,1.176471%);fill-opacity:1;" d="M 32 5.5 C 17.398438 5.5 5.5 17.398438 5.5 32 C 5.5 46.601562 17.398438 58.5 32 58.5 C 46.601562 58.5 58.5 46.601562 58.5 32 C 58.5 17.398438 46.601562 5.5 32 5.5 Z M 32 8.5 C 44.949219 8.5 55.5 19.050781 55.5 32 C 55.5 44.949219 44.949219 55.5 32 55.5 C 19.050781 55.5 8.5 44.949219 8.5 32 C 8.5 19.050781 19.050781 8.5 32 8.5 Z M 32 13 C 31.148438 13 30.5 13.648438 30.5 14.5 L 30.5 27.25 C 28.449219 27.898438 27 29.800781 27 32 C 27 34.75 29.25 37 32 37 C 34.25 37 36.148438 35.550781 36.75 33.5 L 44.5 33.5 C 45.351562 33.5 46 32.851562 46 32 C 46 31.148438 45.351562 30.5 44.5 30.5 L 36.75 30.5 C 36.25 28.949219 35.050781 27.699219 33.5 27.25 L 33.5 14.5 C 33.5 13.648438 32.851562 13 32 13 Z M 32 30 C 33.101562 30 34 30.898438 34 32 C 34 33.101562 33.101562 34 32 34 C 30.898438 34 30 33.101562 30 32 C 30 30.898438 30.898438 30 32 30 Z M 32 30 "/>
</g>
</svg>
