<?xml version="1.0" encoding="UTF-8"?>
<svg width="700pt" height="700pt" version="1.1" viewBox="0 0 700 700" xmlns="http://www.w3.org/2000/svg">
 <g fill-rule="evenodd">
  <path d="m356.42 176.93c3.2773 2.1602 5.2461 5.8203 5.2461 9.7422v175c0 6.4414-5.2266 11.664-11.668 11.664h-163.33c-6.4453 0-11.668-5.2227-11.668-11.664v-105c0-4.668 2.7812-8.8867 7.0703-10.727l163.33-69.996c3.6055-1.5469 7.7461-1.1758 11.02 0.98047zm-158.09 87.434v85.641h140v-145.64z"/>
  <path d="m519.75 176.93c3.2773 2.1602 5.2461 5.8203 5.2461 9.7422v175c0 6.4414-5.2227 11.664-11.668 11.664h-163.33c-6.4414 0-11.668-5.2227-11.668-11.664v-105c0-4.668 2.7812-8.8867 7.0703-10.727l163.34-69.996c3.6016-1.5469 7.7422-1.1758 11.016 0.98047zm-158.09 87.434v85.641h140v-145.64z"/>
  <path d="m151.67 361.67c0-6.4453 5.2227-11.668 11.664-11.668h373.34c6.4414 0 11.664 5.2227 11.664 11.668v151.66c0 6.4453-5.2227 11.668-11.664 11.668h-373.34c-6.4414 0-11.664-5.2227-11.664-11.668zm23.332 11.664v128.34h350v-128.34z"/>
  <path d="m210 70c0-6.4414 5.2227-11.668 11.668-11.668h70c6.4414 0 11.664 5.2266 11.664 11.668v134.17h-23.332v-122.5h-46.668v157.5h-23.332z"/>
  <path d="m396.67 70c0-6.4414 5.2227-11.668 11.664-11.668h70c6.4453 0 11.668 5.2266 11.668 11.668v122.5h-23.332v-110.83h-46.668v145.83h-23.332z"/>
  <path d="m326.67 81.668h-140v-23.336h140z"/>
  <path d="m513.33 81.668h-140v-23.336h140z"/>
  <path d="m478.33 443.33h-70v-23.332h70z"/>
  <path d="m291.67 443.33h-70v-23.332h70z"/>
  <path d="m583.33 525h-466.66v-23.332h466.66z"/>
 </g>
</svg>
